<?xml version="1.0" encoding="UTF-8" standalone="no"?>
<svg
   xmlns:dc="http://purl.org/dc/elements/1.1/"
   xmlns:cc="http://creativecommons.org/ns#"
   xmlns:rdf="http://www.w3.org/1999/02/22-rdf-syntax-ns#"
   xmlns:svg="http://www.w3.org/2000/svg"
   xmlns="http://www.w3.org/2000/svg"
   xmlns:sodipodi="http://sodipodi.sourceforge.net/DTD/sodipodi-0.dtd"
   xmlns:inkscape="http://www.inkscape.org/namespaces/inkscape"
   viewBox="0 0 100 100"
   id="svg2"
   version="1.1"
   inkscape:version="0.91 r13725"
   sodipodi:docname="graduation-309661.svg"
   width="100"
   height="100"
   inkscape:export-filename="D:\Manuel\Dokumente\Entwicklung\Moodle\server\moodle\blocks\igat\img\graduation.png"
   inkscape:export-xdpi="90"
   inkscape:export-ydpi="90">
  <metadata
     id="metadata40">
    <rdf:RDF>
      <cc:Work
         rdf:about="">
        <dc:format>image/svg+xml</dc:format>
        <dc:type
           rdf:resource="http://purl.org/dc/dcmitype/StillImage" />
        <dc:title></dc:title>
      </cc:Work>
    </rdf:RDF>
  </metadata>
  <sodipodi:namedview
     pagecolor="#ffffff"
     bordercolor="#666666"
     borderopacity="1"
     objecttolerance="10"
     gridtolerance="10"
     guidetolerance="10"
     inkscape:pageopacity="0"
     inkscape:pageshadow="2"
     inkscape:window-width="1920"
     inkscape:window-height="1017"
     id="namedview38"
     showgrid="false"
     inkscape:zoom="3.6875"
     inkscape:cx="32"
     inkscape:cy="32"
     inkscape:window-x="-8"
     inkscape:window-y="-8"
     inkscape:window-maximized="1"
     inkscape:current-layer="svg2" />
  <defs
     id="defs4">
    <linearGradient
       id="d"
       x1="0.16645251"
       x2="34.257866"
       y1="46.588734"
       y2="46.588734"
       gradientTransform="matrix(2.9395309,0,0,0.84660716,-0.59197747,-1.0101622)"
       gradientUnits="userSpaceOnUse">
      <stop
         stop-color="#28292b"
         offset="0"
         id="stop7" />
      <stop
         stop-color="#1a2334"
         offset="1"
         id="stop9" />
    </linearGradient>
    <linearGradient
       id="c"
       x1="17.636129"
       x2="19.839008"
       y1="37.820377"
       y2="37.820377"
       gradientTransform="matrix(2.765783,0,0,0.89979143,-0.59197747,-1.0101622)"
       gradientUnits="userSpaceOnUse">
      <stop
         offset="0"
         id="stop12" />
      <stop
         stop-color="#797979"
         offset="1"
         id="stop14" />
    </linearGradient>
  </defs>
  <path
     d="m 29.297646,33.574216 43.16461,0 2.62534,22.844336 c -0.334234,3.897782 -0.49478,4.024301 -2.962776,5.7577 -3.035026,1.678186 -6.712111,2.565236 -10.059648,3.198302 -8.397553,1.58795 -17.674742,1.57727 -28.868955,-1.921127 -3.648531,-1.067741 -5.274974,-5.75139 -5.028404,-7.675356 l 1.129044,-22.203855 z"
     id="path16"
     inkscape:connector-curvature="0"
     style="stroke:#050404;stroke-width:0.3801868" />
  <path
     d="M 0.00149254,34.831514 48.955669,24.031212 100.00009,33.931528 50.746175,52.832018 -8.5e-5,34.832303 Z"
     id="path18"
     inkscape:connector-curvature="0"
     style="fill:url(#d)" />
  <path
     d="m 18.526212,57.543337 2.69065,-0.07225 c 1.521583,6.215659 4.300055,14.854418 3.453548,16.261267 -1.080551,2.318351 -6.180323,3.297056 -7.382723,0.652659 0.0694,-5.000166 1.441428,-10.18522 1.238431,-16.841801 z"
     id="path20"
     inkscape:connector-curvature="0"
     style="fill:#ff0000" />
  <path
     d="m 54.281124,33.22558 c -1.771576,0.973436 -5.482104,-0.871606 -6.080465,-0.09478 -0.06253,0.08142 -7.73e-4,0.542043 0.0087,0.678626 1.460974,1.073089 4.280493,1.092729 5.997959,0.01341 l 0.07399,-0.597256 z"
     id="path22"
     inkscape:connector-curvature="0"
     style="fill:#373737" />
  <path
     d="m 50.075406,33.181409 1.511598,0.450072 c -7.623771,1.965139 -27.785187,3.935012 -31.514488,7.601527 -1.122593,1.126205 -0.05395,6.228753 -0.411564,9.333507 l -1.772523,0.0099 c 0.243635,-3.03613 -0.528538,-7.549942 0.264743,-9.295961 0.864901,-1.779621 4.44503,-4.096552 31.921493,-8.099083 z"
     id="path24"
     inkscape:connector-curvature="0"
     style="fill:#ff0000" />
  <rect
     transform="matrix(0.99001516,-0.14096095,0.165877,0.98614645,0,0)"
     x="8.4275646"
     y="55.21751"
     width="3.1071057"
     height="5.1552439"
     id="rect26"
     style="fill:#bfbfbf" />
  <path
     d="m 53.908825,32.474672 c 5.598526,-1.86402 11.412545,-3.445976 18.283672,-3.341227 0.30721,-0.0734 0.827135,0.489889 -0.295521,0.519736 -6.055855,0.242594 -11.72679,1.903615 -17.5091,3.15555 -0.730053,0.247658 -0.923917,-0.198833 -0.480187,-0.334123 z"
     id="path28"
     inkscape:connector-curvature="0" />
  <path
     d="m 54.009787,33.754055 c 6.627555,1.439583 13.302594,3.274182 20.031585,7.339025 0.346711,0.106705 0.529469,0.947596 -0.59743,0.328649 -6.126686,-3.260457 -12.7066,-4.936749 -19.15605,-7.069897 -0.866953,-0.183294 -0.796168,-0.723901 -0.278168,-0.597871 z"
     id="path30"
     inkscape:connector-curvature="0" />
  <path
     d="m 50.152705,32.70026 c -6.541421,-1.815116 -13.357019,-3.422944 -21.536556,-3.774419 -0.360767,-0.07697 -1.014641,0.332024 0.318742,0.426282 7.187423,0.572426 13.827756,2.233006 20.626316,3.579751 0.852739,0.240322 1.111439,-0.09762 0.592177,-0.231741 z"
     id="path32"
     inkscape:connector-curvature="0" />
  <path
     d="m 21.376825,52.167085 a 2.427359,2.439506 0 0 1 -4.854718,0 2.427359,2.439506 0 1 1 4.854718,0 z"
     id="path34"
     inkscape:connector-curvature="0"
     style="fill:#ff0000" />
  <path
     d="m 54.281124,33.22558 c -1.363404,0.984952 -4.700907,0.95206 -6.097344,0 0,-0.69437 1.364933,-1.257267 3.048751,-1.257267 1.683707,0 3.048751,0.562897 3.048751,1.257267 z"
     id="path36"
     inkscape:connector-curvature="0"
     style="fill:url(#c)" />
</svg>
