<?xml version="1.0" encoding="UTF-8"?>
<svg viewBox="0 0 48 48" xmlns="http://www.w3.org/2000/svg" xmlns:xlink="http://www.w3.org/1999/xlink">
 <defs>
  <filter id="a"/>
  <filter id="at" x="-.06164" y="-.13638" width="1.1233" height="1.2728"/>
  <linearGradient id="w">
   <stop stop-color="#2b1100" offset="0"/>
   <stop stop-color="#864c26" offset="1"/>
   <stop stop-color="#2b1100" stop-opacity="0" offset="1"/>
  </linearGradient>
  <linearGradient id="x">
   <stop stop-color="#4e351b" offset="0"/>
   <stop stop-color="#ebd8c5" stop-opacity=".498" offset=".8103"/>
   <stop stop-color="#4e351b" stop-opacity="0" offset="1"/>
  </linearGradient>
  <linearGradient id="e">
   <stop stop-color="#341603" offset="0"/>
   <stop stop-color="#341603" stop-opacity="0" offset="1"/>
  </linearGradient>
  <linearGradient id="d" x1="86.621" x2="87.046" y1="23.113" y2="22.915" gradientUnits="userSpaceOnUse">
   <stop stop-color="#ceac83" offset="0"/>
   <stop stop-color="#a27540" stop-opacity="0" offset="1"/>
  </linearGradient>
  <linearGradient id="ak" x1="11.715" x2="55.749" y1="7.975" y2="17.864" gradientTransform="matrix(1.1811 0 0 1.2613 .083291 -2.1622)" gradientUnits="userSpaceOnUse">
   <stop stop-color="#2b1100" offset="0"/>
   <stop stop-color="#7c3100" offset=".5"/>
   <stop stop-color="#2b1100" stop-opacity="0" offset="1"/>
  </linearGradient>
  <linearGradient id="ai" x1="20.949" x2="15.781" y1="5.0463" y2="37.228" gradientTransform="matrix(1.1811 0 0 1.3189 .083291 -2.8758)" gradientUnits="userSpaceOnUse">
   <stop stop-color="#361804" offset="0"/>
   <stop stop-color="#733308" offset=".5"/>
   <stop stop-color="#361804" stop-opacity="0" offset="1"/>
  </linearGradient>
  <linearGradient id="as" x1="95.769" x2="96.027" y1="23.807" y2="24.376" gradientTransform="matrix(1.0395 0 0 1.3857 -3.8089 -9.2938)" gradientUnits="userSpaceOnUse" xlink:href="#x"/>
  <linearGradient id="ar" x1="27.208" x2="37.107" gradientUnits="userSpaceOnUse" xlink:href="#e"/>
  <linearGradient id="aq" x1="30.771" x2="37.256" gradientUnits="userSpaceOnUse" xlink:href="#e"/>
  <linearGradient id="ap" x1="32.627" x2="37.775" gradientUnits="userSpaceOnUse" xlink:href="#e"/>
  <linearGradient id="ao" x1="32.627" x2="37.181" gradientUnits="userSpaceOnUse" xlink:href="#e"/>
  <linearGradient id="an" x1="30.103" x2="37.181" gradientUnits="userSpaceOnUse" xlink:href="#e"/>
  <linearGradient id="am" x1="95.769" x2="96.027" y1="23.807" y2="24.376" gradientTransform="matrix(1.2465 0 0 1.9299 -85.124 -11.734)" gradientUnits="userSpaceOnUse" xlink:href="#x"/>
  <linearGradient id="al" x1="13.2" x2="13.281" y1="48.457" y2="49.2" gradientTransform="matrix(1.0155 -.68138 .64008 1.081 -5.4453 -9.73)" gradientUnits="userSpaceOnUse" xlink:href="#w"/>
  <linearGradient id="aj" x1="1.3879" x2="33.616" y1="22.364" y2="38.083" gradientTransform="matrix(1.1811 0 0 1.2613 .083291 -2.1622)" gradientUnits="userSpaceOnUse" xlink:href="#w"/>
  <radialGradient id="c" cx="86.864" cy="23.113" r=".24307" gradientTransform="matrix(3.6844 2.0932 -.67366 1.8672 -217.61 -201.87)" gradientUnits="userSpaceOnUse">
   <stop stop-color="#351e0e" offset="0"/>
   <stop stop-color="#351e0e" stop-opacity="0" offset="1"/>
  </radialGradient>
  <radialGradient id="ah" cx="70.589" cy="6.9474" r="1.153" gradientTransform="matrix(1.6873 -1.7033 1.4697 1.4559 -58.637 116.11)" gradientUnits="userSpaceOnUse">
   <stop stop-color="#ab763b" offset="0"/>
   <stop stop-color="#ab763b" stop-opacity="0" offset="1"/>
  </radialGradient>
  <radialGradient id="ag" cx="64.016" cy="30.511" r="2.6152" gradientTransform="matrix(-1.1438 1.2625 -1.061 -.9612 169.37 -22.262)" gradientUnits="userSpaceOnUse">
   <stop stop-color="#fff" offset="0"/>
   <stop stop-color="#e5c744" offset=".4585"/>
   <stop stop-color="#edda82" stop-opacity="0" offset="1"/>
  </radialGradient>
 </defs>
 <path d="m42.312 6.8871c-0.31319 0.11657-30.797-5.3624-30.797-5.3624-1.1939 0.29473-1.4011 1.6392-4.4891 2.7395-0.88792-0.0293-1.6416-0.02111-3.6017-0.34972l-1.305 1.5737 28.292 7.9853" fill="url(#ai)" fill-rule="evenodd"/>
 <path d="m41.422 7.0217c-1.3257 0-1.604 0.3627-2.8827 1.4922l-1.6002 1.4589c-2.118 1.2819-2.4194 1.8697-3.8218 1.8183l-0.40601-0.19708-1.661-0.70949-1.218 2.6015 15.318 9.8934 1.218-2.6803c-1.9035-1.9168-1.6623-2.0869-1.4891-4.2159 0.49498-2.3381 0.67704-2.9566 0.67704-4.1798 0-2.9155-1.852-5.2818-4.1339-5.2818zm-8.7107 4.5723c0.10036 0.09728 0.24451 0.16041 0.40601 0.19708-0.32523-0.20017-0.47569-0.26462-0.40601-0.19708z" fill="#2b1100" stroke="#2b1100" stroke-linecap="round" stroke-linejoin="round" stroke-width=".75271"/>
 <path d="m44.61 23.21-17.648 9.0491-25.395-13.071 17.791-4.5245 25.252 8.5463z" fill="#0b0b0b" fill-rule="evenodd" stroke="#2b1100" stroke-width=".60936"/>
 <path d="m31.402 10.909-27.874-6.6334-0.27082-0.16012 28.145 6.7935z" fill="#520" fill-rule="evenodd" stroke="#2b1100" stroke-width=".48822"/>
 <g transform="matrix(1.235 0 0 1.1394 -4.6382 -4.3557)">
  <g id="y" transform="matrix(.79522 .10034 -.049753 1.1326 -33.053 -21.747)">
   <path transform="translate(.06891,.13782)" d="m65.879 29.647c0 0.60894-1.1261 1.1026-2.5152 1.1026s-2.5152-0.49364-2.5152-1.1026 1.1261-1.1026 2.5152-1.1026 2.5152 0.49364 2.5152 1.1026z" fill="#584a2c" filter="url(#at)" stroke="#6e4c29" stroke-linecap="round" stroke-linejoin="round" stroke-width=".04215"/>
   <path d="m65.879 29.647c0 0.60894-1.1261 1.1026-2.5152 1.1026s-2.5152-0.49364-2.5152-1.1026 1.1261-1.1026 2.5152-1.1026 2.5152 0.49364 2.5152 1.1026z" fill="url(#ag)" filter="url(#a)" stroke="#6e4c29" stroke-linecap="round" stroke-linejoin="round" stroke-width=".04215"/>
  </g>
  <use id="u" transform="translate(-1.8305 4.3729)" width="48" height="48" xlink:href="#y"/>
  <use id="t" transform="translate(4.2712 -.81356)" width="48" height="48" xlink:href="#u"/>
  <use id="s" transform="translate(-6.4068 2.0339)" width="48" height="48" xlink:href="#t"/>
  <use id="r" transform="translate(4.8814 .20339)" width="48" height="48" xlink:href="#s"/>
  <use id="q" transform="translate(6.1017 3.0508)" width="48" height="48" xlink:href="#r"/>
  <use id="p" transform="translate(-8.5424 -7.017)" width="48" height="48" xlink:href="#q"/>
  <use id="o" transform="translate(10.169 4.983)" width="48" height="48" xlink:href="#p"/>
  <use id="n" transform="translate(-1.7288 -2.6441)" width="48" height="48" xlink:href="#o"/>
  <use id="m" transform="translate(-5.4915 4.678)" width="48" height="48" xlink:href="#n"/>
  <use id="l" transform="matrix(.84646 0 0 .97004 1.2882 .76413)" width="48" height="48" xlink:href="#m"/>
  <use id="k" transform="translate(4.2712 -3.3559)" width="48" height="48" xlink:href="#l"/>
  <use id="j" transform="translate(-5.5932 1.7288)" width="48" height="48" xlink:href="#k"/>
  <use id="i" transform="translate(5.4915 -.40678)" width="48" height="48" xlink:href="#j"/>
  <use id="h" transform="translate(-.20339 2.339)" width="48" height="48" xlink:href="#i"/>
  <use id="g" transform="translate(-1.322 -7.8305)" width="48" height="48" xlink:href="#h"/>
  <use id="f" transform="translate(3.5593 1.2203)" width="48" height="48" xlink:href="#g"/>
  <use id="z" transform="translate(-.40678,4.0678)" width="48" height="48" xlink:href="#f"/>
  <use transform="matrix(-.96388 .26632 -.26632 -.96388 49.148 43.022)" width="48" height="48" xlink:href="#y"/>
  <use transform="matrix(-.96388 .26632 -.26632 -.96388 49.148 43.022)" width="48" height="48" xlink:href="#u"/>
  <use transform="matrix(-.96388 .26632 -.26632 -.96388 49.148 43.022)" width="48" height="48" xlink:href="#t"/>
  <use transform="matrix(-.96388 .26632 -.26632 -.96388 49.148 43.022)" width="48" height="48" xlink:href="#s"/>
  <use transform="matrix(-.96388 .26632 -.26632 -.96388 49.148 43.022)" width="48" height="48" xlink:href="#r"/>
  <use transform="matrix(-.96388 .26632 -.26632 -.96388 49.148 43.022)" width="48" height="48" xlink:href="#q"/>
  <use transform="matrix(-.96388 .26632 -.26632 -.96388 49.148 43.022)" width="48" height="48" xlink:href="#p"/>
  <use transform="matrix(-.96388 .26632 -.26632 -.96388 49.148 43.022)" width="48" height="48" xlink:href="#o"/>
  <use transform="matrix(-.96388 .26632 -.26632 -.96388 49.148 43.022)" width="48" height="48" xlink:href="#n"/>
  <use transform="matrix(-.96388 .26632 -.26632 -.96388 49.148 43.022)" width="48" height="48" xlink:href="#m"/>
  <use transform="matrix(-.96388 .26632 -.26632 -.96388 49.148 43.022)" width="48" height="48" xlink:href="#l"/>
  <use transform="matrix(-.96388 .26632 -.26632 -.96388 49.148 43.022)" width="48" height="48" xlink:href="#k"/>
  <use transform="matrix(-.96388 .26632 -.26632 -.96388 49.148 43.022)" width="48" height="48" xlink:href="#j"/>
  <use transform="matrix(-.96388 .26632 -.26632 -.96388 47.928 44.344)" width="48" height="48" xlink:href="#i"/>
  <use transform="matrix(-.96388 .26632 -.26632 -.96388 49.148 43.022)" width="48" height="48" xlink:href="#h"/>
  <use transform="matrix(-.96388 .26632 -.26632 -.96388 48.945 43.429)" width="48" height="48" xlink:href="#g"/>
  <use transform="matrix(-.96388 .26632 -.26632 -.96388 50.333 43.804)" width="48" height="48" xlink:href="#f"/>
  <use transform="matrix(-.96388 .26632 -.26632 -.96388 49.148 43.022)" width="48" height="48" xlink:href="#z"/>
 </g>
 <path d="m44.243 23.117c-3.8627-1.6723-25.107-8.5844-25.107-8.5844l-17.069-8.4729 27.978 7.2983s14.355 9.7032 14.198 9.759z" fill="#100904" fill-rule="evenodd" stroke="#230d00" stroke-width=".36617"/>
 <path d="m27.07 32.147c-0.26099 4.2364-0.57418 14.382-0.57418 14.382l17.852-11.204 1.2006-12.04c-6.0665 2.8872-12.595 6.0885-18.478 8.8631z" fill="#2b1100" fill-rule="evenodd" stroke="#2b1100" stroke-width=".48822"/>
 <path d="m26.444 46.752c-0.73078-0.33446-24.899-16.221-24.899-16.221l-0.67858-11.316 26.047 13.155-0.46979 14.382z" fill="url(#aj)" fill-rule="evenodd" stroke="#2b1100" stroke-linejoin="round" stroke-width=".36617"/>
 <path d="m26.817 32.097-3.7208-1.754-0.21807 14.032 3.4495 2.1925 0.48933-14.47z" fill="#835e34" fill-rule="evenodd" stroke="#835e34" stroke-width=".36323"/>
 <path d="m3.9193 20.672-3.03-1.4044 0.658 11.235 2.8425 1.7555-0.47058-11.586z" fill="#835e34" fill-rule="evenodd" stroke="#835e34" stroke-width=".28824"/>
 <g id="b" transform="matrix(.57444 0 .008721 .7587 -50.74 1.0759)">
  <path transform="matrix(2.0978 0 0 1.6717 -91.275 -11.967)" d="m87.10671,23.11345c.00017.11857-.04612.22823-.1214.28758s-.16806.05935-.24334,0-.12157-.16901-.1214-.28758 .04612-.22823.1214-.28758 .16806-.05935.24334,0 .12157.16901.1214.28758z" fill="url(#c)"/>
  <path transform="matrix(2.0978 0 0 1.6717 -91.396 -12.022)" d="m87.10671,23.11345c.00017.11857-.04612.22823-.1214.28758s-.16806.05935-.24334,0-.12157-.16901-.1214-.28758 .04612-.22823.1214-.28758 .16806-.05935.24334,0 .12157.16901.1214.28758z" fill="#835e34" stroke="#241f1c" stroke-linecap="round" stroke-linejoin="round" stroke-width=".03311"/>
  <path transform="matrix(2.1887 0 0 1.6717 -99.326 -12.045)" d="m87.10671,23.11345c.00017.11857-.04612.22823-.1214.28758s-.16806.05935-.24334,0-.12157-.16901-.1214-.28758 .04612-.22823.1214-.28758 .16806-.05935.24334,0 .12157.16901.1214.28758z" fill="url(#d)" filter="url(#a)"/>
 </g>
 <path d="m1.7111 5.6804 28.731 7.8226 1.2209-2.6945-28.406-6.7796-1.5464 1.6514z" fill="url(#ak)" fill-rule="evenodd" stroke="#000" stroke-width=".24411"/>
 <path d="m31.528 10.715-3.9774-1.022-1.0459 2.6786 3.9238 1.0802 1.0996-2.7368z" fill="#835e34" fill-rule="evenodd" stroke="#835e34" stroke-width=".16622"/>
 <path transform="matrix(1.6408 0 -.049676 1.788 -112.4 -29.812)" d="m87.10671,23.11345c.00017.11857-.04612.22823-.1214.28758s-.16806.05935-.24334,0-.12157-.16901-.1214-.28758 .04612-.22823.1214-.28758 .16806-.05935.24334,0 .12157.16901.1214.28758z" fill="url(#c)"/>
 <path transform="matrix(1.6408 0 -.049676 1.788 -112.49 -29.871)" d="m87.10671,23.11345c.00017.11857-.04612.22823-.1214.28758s-.16806.05935-.24334,0-.12157-.16901-.1214-.28758 .04612-.22823.1214-.28758 .16806-.05935.24334,0 .12157.16901.1214.28758z" fill="#835e34" stroke="#241f1c" stroke-linecap="round" stroke-linejoin="round" stroke-width=".03311"/>
 <path transform="matrix(1.7119 0 -.049676 1.788 -118.7 -29.895)" d="m87.10671,23.11345c.00017.11857-.04612.22823-.1214.28758s-.16806.05935-.24334,0-.12157-.16901-.1214-.28758 .04612-.22823.1214-.28758 .16806-.05935.24334,0 .12157.16901.1214.28758z" fill="url(#d)" filter="url(#a)"/>
 <path d="m5.24832,4.64514c-.00011-.27696-.99277-.55984-1.93321-.63597l-1.51721,1.55071 2.49091.91648 .95951-1.83123z" fill="#835e34" fill-rule="evenodd" stroke="#835e34" stroke-width=".16622"/>
 <path transform="matrix(1.3899 0 -.04208 1.2632 -115.97 -24.046)" d="m87.10671,23.11345c.00017.11857-.04612.22823-.1214.28758s-.16806.05935-.24334,0-.12157-.16901-.1214-.28758 .04612-.22823.1214-.28758 .16806-.05935.24334,0 .12157.16901.1214.28758z" fill="url(#c)"/>
 <path transform="matrix(1.3899 0 -.04208 1.2632 -116.05 -24.087)" d="m87.10671,23.11345c.00017.11857-.04612.22823-.1214.28758s-.16806.05935-.24334,0-.12157-.16901-.1214-.28758 .04612-.22823.1214-.28758 .16806-.05935.24334,0 .12157.16901.1214.28758z" fill="#835e34" stroke="#241f1c" stroke-linecap="round" stroke-linejoin="round" stroke-width=".03311"/>
 <path transform="matrix(1.4501 0 -.04208 1.2632 -121.3 -24.104)" d="m87.10671,23.11345c.00017.11857-.04612.22823-.1214.28758s-.16806.05935-.24334,0-.12157-.16901-.1214-.28758 .04612-.22823.1214-.28758 .16806-.05935.24334,0 .12157.16901.1214.28758z" fill="url(#d)" filter="url(#a)"/>
 <path d="m9.86442,23.18233c-.12217.6244-.20366,1.22674.25837,1.65547-.12354.2517-.47841.1243-.25837.94599-.2149.05213.56148,1.18209.7382,1.06423 .00826.44376-.28361.77387.25837,1.41898l.14764.07883-.11073,8.31679 2.76824,1.9708 .25837-8.75037c.41203.05263.68231.0156.77511-.19708 .18579-.11863.40944-.20139.22146-.63066 .36685.13839.51193-.14598.59056-.43358 .32508-.38803.37251-.27087.11073-.67007l-.03691-.63066 .51674-.82774c.12893-.28039-.22969-.28617-.77511-.63066-1.07729-.70717-3.67825-1.75211-5.46267-2.68029z" fill="#835e34" fill-rule="evenodd" stroke="#835e34" stroke-width=".31057"/>
 <path d="m29.62854,36.10179c-.48689-1.18206 4.62052-3.9073 5.37186-4.60667 .2046-.00965.1575-.43417.11486-.65106-.05723-.25092-.07814-.4669-.03347-.82655 .32671-.17384 3.33752-1.71459 3.82542-1.82529 .29126.27276.56732.82529.73253,1.21686 1.27689-.3089 3.01492-1.67507 3.74402-.69535 .09236,1.66316-.49892,2.24859-1.22087,2.86831-.24052.90206-.96112,1.48701-1.62784,1.93393-.41504-.06576-1.11695-.26629-1.30227-.10865-.34319.84021-.83244,1.68042-2.03479,2.52063-.77777.26085-1.39127-.00461-1.95341-.43459l-1.70923,2.25988c-1.70724.02613-3.41078-.41655-3.90681-1.65145z" fill="#835e34" fill-rule="evenodd"/>
 <path transform="matrix(-1.5284 -.63741 .65535 -1.6462 154.01 127.87)" d="m87.10671,23.11345c.00017.11857-.04612.22823-.1214.28758s-.16806.05935-.24334,0-.12157-.16901-.1214-.28758 .04612-.22823.1214-.28758 .16806-.05935.24334,0 .12157.16901.1214.28758z" fill="url(#c)"/>
 <path transform="matrix(-1.5284 -.63741 .65535 -1.6462 154.07 127.96)" d="m87.10671,23.11345c.00017.11857-.04612.22823-.1214.28758s-.16806.05935-.24334,0-.12157-.16901-.1214-.28758 .04612-.22823.1214-.28758 .16806-.05935.24334,0 .12157.16901.1214.28758z" fill="#835e34" stroke="#241f1c" stroke-linecap="round" stroke-linejoin="round" stroke-width=".03311"/>
 <path transform="matrix(-1.5946 -.66504 .65535 -1.6462 159.84 130.39)" d="m87.10671,23.11345c.00017.11857-.04612.22823-.1214.28758s-.16806.05935-.24334,0-.12157-.16901-.1214-.28758 .04612-.22823.1214-.28758 .16806-.05935.24334,0 .12157.16901.1214.28758z" fill="url(#d)" filter="url(#a)"/>
 <g transform="matrix(1.0099 0 0 1.0286 -54.802 5.5178)">
  <path d="m94.125,24.03125-.15625.90625 .875.1875c.03171.01449.05871.02531.09375.03125h.0625c.23774,0 .4375-.18074.4375-.4375 0-.22553-.14642-.4263-.34375-.46875l-.96875-.21875z" fill="#4e351b"/>
  <path d="m94.08064,24.05439 1.18198-.76393 .78799.31035c.25887.12649.34405.31914.26863.57295l-.91335.7878c.03297-.16787.04108-.34237-.16118-.57295l-1.16407-.33422z" fill="url(#as)" fill-rule="evenodd"/>
 </g>
 <path transform="matrix(1.1811 0 0 1.2613 .083291 -2.1622)" d="m10.31941,8.33679c1.58087.39866 2.75267.8402 4.46198.98198 .32035-.04904.59845-.20367.82693-.48238 .11416-1.0275-1.56449-1.36047-2.82535-1.72277-.87062-.01019-1.66544-.37219-2.61862.41347-.18155.16896-.2889.70325.15505.8097z" fill="#7d572b" fill-rule="evenodd" filter="url(#a)"/>
 <path d="m12.06824,8.26618c1.86719.50283 3.25123,1.05976 5.27012,1.23859 .37837-.06185.70684-.25689.9767-.60843 .13483-1.296-1.84784-1.71599-3.33707-2.17296-1.0283-.01285-1.96708-.46945-3.09289.52151-.21443.21311-.34122.88701.18313,1.02129z" fill="#aa763b" fill-rule="evenodd"/>
 <path transform="matrix(1.0876 0 -.032927 1.2104 -76.484 -19.392)" d="m87.10671,23.11345c.00017.11857-.04612.22823-.1214.28758s-.16806.05935-.24334,0-.12157-.16901-.1214-.28758 .04612-.22823.1214-.28758 .16806-.05935.24334,0 .12157.16901.1214.28758z" fill="url(#c)"/>
 <path transform="matrix(1.0876 0 -.032927 1.2104 -76.546 -19.432)" d="m87.10671,23.11345c.00017.11857-.04612.22823-.1214.28758s-.16806.05935-.24334,0-.12157-.16901-.1214-.28758 .04612-.22823.1214-.28758 .16806-.05935.24334,0 .12157.16901.1214.28758z" fill="#835e34" stroke="#241f1c" stroke-linecap="round" stroke-linejoin="round" stroke-width=".03311"/>
 <path transform="matrix(1.1347 0 -.032927 1.2104 -80.657 -19.448)" d="m87.10671,23.11345c.00017.11857-.04612.22823-.1214.28758s-.16806.05935-.24334,0-.12157-.16901-.1214-.28758 .04612-.22823.1214-.28758 .16806-.05935.24334,0 .12157.16901.1214.28758z" fill="url(#d)" filter="url(#a)"/>
 <path transform="matrix(1.0876 0 -.032927 1.2104 -80.879 -20.391)" d="m87.10671,23.11345c.00017.11857-.04612.22823-.1214.28758s-.16806.05935-.24334,0-.12157-.16901-.1214-.28758 .04612-.22823.1214-.28758 .16806-.05935.24334,0 .12157.16901.1214.28758z" fill="url(#c)"/>
 <path transform="matrix(1.0876 0 -.032927 1.2104 -80.941 -20.431)" d="m87.10671,23.11345c.00017.11857-.04612.22823-.1214.28758s-.16806.05935-.24334,0-.12157-.16901-.1214-.28758 .04612-.22823.1214-.28758 .16806-.05935.24334,0 .12157.16901.1214.28758z" fill="#835e34" stroke="#241f1c" stroke-linecap="round" stroke-linejoin="round" stroke-width=".03311"/>
 <path transform="matrix(1.1347 0 -.032927 1.2104 -85.052 -20.447)" d="m87.10671,23.11345c.00017.11857-.04612.22823-.1214.28758s-.16806.05935-.24334,0-.12157-.16901-.1214-.28758 .04612-.22823.1214-.28758 .16806-.05935.24334,0 .12157.16901.1214.28758z" fill="url(#d)" filter="url(#a)"/>
 <g transform="matrix(1.1811 0 0 1.2613 -68.693 1.1407)" fill-rule="evenodd">
  <path d="m70.82084,4.79649c-.13284.10451-.33834.32597-.46875.56691-.13787.19544-.32115.40128-.375.625-.34736.53224-.57349,1.12004-.78445,1.83413-.25329,1.0655-.23527,1.57771-.1218,1.63462 .14917.33052.92736-.53459 1.34696-1.27043 .47132-.82655.64474-1.83099.75-2.1875 .1364-.46197.13573-.63539.1258-1.0649-.0044-.19023-.17007-.20711-.47276-.13782zm-.53125,1.91066c.14315.038.10105.49896-.125,1.03125s-.54435.94425-.6875.90625-.0698-.49896.15625-1.03125 .5131-.94425.65625-.90625z" fill="#543a1d" filter="url(#a)"/>
  <path d="m70.75193,4.77926c-.13284.10451-.33834.32597-.46875.56691-.13787.19544-.32115.40128-.375.625-.34736.53224-.57349,1.12004-.78445,1.83413-.25329,1.0655-.23527,1.57771-.1218,1.63462 .14917.33052.92736-.53459 1.34696-1.27043 .47132-.82655.64474-1.83099.75-2.1875 .1364-.46197.13573-.63539.1258-1.0649-.0044-.19023-.17007-.20711-.47276-.13782zm-.53125,1.91066c.14315.038.10105.49896-.125,1.03125s-.54435.94425-.6875.90625-.0698-.49896.15625-1.03125 .5131-.94425.65625-.90625z" fill="url(#ah)"/>
 </g>
 <path d="m40.162 33.771-0.25212-2.16 0.88501-0.54521" fill="none" stroke="#6e4c29" stroke-linecap="round" stroke-linejoin="round" stroke-width="1.105"/>
 <path d="m37.28 34.659 3.0091-1.9321c0.73645 0.23103 0.80604 0.76727 0.79395 1.3409l-3.0091 2.019-0.79395-1.4278z" fill="url(#al)"/>
 <path d="m37.98821,35.23152c.19323.40668.18739.8244-.01304.93301s-.51956-.13303-.71279-.53971-.18739-.8244.01304-.93301 .51956.13303.71279.53971z" fill="#4e351b"/>
 <path d="m33.474 34.907c0.87875-0.51512 1.9183-1.3736 2.6045-1.4776 0.30239 0.62141 0.25223 1.2567 1.465 2.0643" fill="none" stroke="#6e4c29" stroke-linecap="round" stroke-linejoin="round" stroke-width="1.2206"/>
 <path d="m32.30583,34.5721-.18455,1.13252 1.03348.23431c.03745.01811.06934.03163.11073.03905h.07382c.2808,0 .51674-.22586.51674-.54673 0-.28184-.17293-.53274-.40601-.58579l-1.14421-.27337z" fill="#4e351b"/>
 <path d="m32.25343,34.71028 1.4173-1.06393 .94486.43222c.3104.17617.41255.44446.32211.79795l-1.09518,1.09718c.03954-.23379.04925-.47682-.19327-.79795l-1.39582-.46547z" fill="url(#am)" fill-rule="evenodd"/>
 <path transform="matrix(1.1811 0 0 1.2613 .083291 -2.1622)" d="m27.369 12.02 9.5766 6.452" fill="#fff" fill-rule="evenodd" filter="url(#a)" stroke="url(#ar)" stroke-width=".32302"/>
 <path transform="matrix(1.1811 0 0 1.2613 .083291 -2.1622)" d="m30.933 10.834 6.1617 4.5238" fill="#fff" fill-rule="evenodd" filter="url(#a)" stroke="url(#aq)" stroke-width=".32302"/>
 <path transform="matrix(1.1811 0 0 1.2613 .083291 -2.1622)" d="m32.788 8.0899 4.8254 3.7822" fill="#fff" fill-rule="evenodd" filter="url(#a)" stroke="url(#ap)" stroke-width=".32302"/>
 <path transform="matrix(1.1811 0 0 1.2613 .083291 -2.1622)" d="m32.788 10.241c2.9695 1.4832 4.2315 2.9664 4.2315 2.9664" fill="#fff" fill-rule="evenodd" filter="url(#a)" stroke="url(#ao)" stroke-width=".32302"/>
 <path transform="matrix(1.1811 0 0 1.2613 .083291 -2.1622)" d="m30.264 12.169c0.96508 0.96409 6.7556 4.5238 6.7556 4.5238" fill="#fff" fill-rule="evenodd" filter="url(#a)" stroke="url(#an)" stroke-width=".32302"/>
 <path transform="matrix(1.1811 0 0 1.2613 .083291 -2.1622)" d="m30.941 6.3556c-2.1729 1.1364-2.5374 3.3366-7.5113 2.8254l3.3077 0.96475c2.246 1.4695 4.9986-1.6197 7.5802-3.1699l-3.3766-0.6202z" fill="#835e34" fill-rule="evenodd" filter="url(#a)" stroke="#4e351b" stroke-width=".2"/>
 <path transform="matrix(.7687 0 0 .98723 3.1358 -1.0681)" d="m9.9551 2.5731c-2.1729 1.1364-4.5491 2.9844-9.523 2.4732l2.5666 0.78867c2.246 1.4695 7.9633-1.2676 10.545-2.8177l-3.5884-0.44411z" fill="#835e34" fill-rule="evenodd" filter="url(#a)" stroke="#4e351b" stroke-width=".2"/>
 <use id="af" transform="translate(1.4746 .81356)" width="48" height="48" xlink:href="#b"/>
 <use id="ae" transform="translate(.91525,3.9661)" width="48" height="48" xlink:href="#b"/>
 <use id="ad" transform="translate(1.017 6.6102)" width="48" height="48" xlink:href="#b"/>
 <use id="v" transform="translate(.40678 8.5932)" width="48" height="48" xlink:href="#b"/>
 <use id="ac" transform="translate(1.4237 1.0678)" width="48" height="48" xlink:href="#v"/>
 <use transform="matrix(1.2826 0 0 1.2413 21.384 6.5668)" width="48" height="48" xlink:href="#b"/>
 <use transform="matrix(1.2826 0 0 1.2413 21.384 6.5668)" width="48" height="48" xlink:href="#af"/>
 <use transform="matrix(1.2826 0 0 1.2413 21.384 6.5668)" width="48" height="48" xlink:href="#ae"/>
 <use transform="matrix(1.2826 0 0 1.2413 21.384 6.5668)" width="48" height="48" xlink:href="#ad"/>
 <use transform="matrix(1.2826 0 0 1.2413 21.384 6.5668)" width="48" height="48" xlink:href="#v"/>
 <use transform="matrix(1.2826 0 0 1.2413 21.384 6.5668)" width="48" height="48" xlink:href="#ac"/>
 <use transform="translate(10.983 15.051)" width="48" height="48" xlink:href="#b"/>
 <use transform="translate(9.7627 11.695)" width="48" height="48" xlink:href="#b"/>
 <use transform="translate(11.186 9.2542)" width="48" height="48" xlink:href="#b"/>
 <use transform="translate(9.0508 4.678)" width="48" height="48" xlink:href="#b"/>
 <use transform="translate(12.712 6.4068)" width="48" height="48" xlink:href="#b"/>
 <use id="ab" transform="matrix(-1.1947 .58373 -.41157 -1.2238 49.233 54.818)" width="48" height="48" xlink:href="#b"/>
 <use id="aa" transform="translate(-2.339 1.322)" width="48" height="48" xlink:href="#ab"/>
 <use transform="translate(2.339 2.2373)" width="48" height="48" xlink:href="#aa"/>
</svg>
